<svg width="23" height="13" viewBox="0 0 23 13" fill="none" xmlns="http://www.w3.org/2000/svg">
<path d="M11.2871 0.876953C5.15792 0.876953 0.298169 6.38117 0.0943219 6.61545C-0.0314406 6.75989 -0.0314406 6.96955 0.0943219 7.11399C0.298169 7.34829 5.15792 12.8525 11.2871 12.8525C17.4163 12.8525 22.2761 7.34829 22.4799 7.11399C22.6057 6.96955 22.6057 6.75989 22.4799 6.61545C22.2761 6.38115 17.4163 0.876953 11.2871 0.876953ZM11.2871 12.0727C6.26137 12.0727 1.97625 7.93438 0.95301 6.86472C1.97625 5.79506 6.26137 1.65674 11.2871 1.65674C16.3129 1.65674 20.598 5.79506 21.6212 6.86472C20.598 7.93438 16.3129 12.0727 11.2871 12.0727Z" fill="#091316"/>
<path d="M15.3088 5.54257C14.8125 4.16614 13.5627 3.12203 12.0343 2.86329C11.7861 2.82064 11.5346 2.79883 11.2867 2.79883C8.94072 2.79883 7.03223 4.62291 7.03223 6.86481C7.03223 9.1067 8.94072 10.9308 11.2867 10.9308C13.6326 10.9308 15.5412 9.10667 15.5412 6.86478C15.5412 6.62871 15.5185 6.38833 15.4739 6.15151C15.4352 5.94263 15.3797 5.73921 15.3088 5.54257ZM12.1016 3.67484C13.3262 3.95024 14.3361 4.91567 14.6245 6.0859C14.306 6.3378 13.9084 6.47488 13.4847 6.47488C12.4977 6.47488 11.6946 5.70729 11.6946 4.76403C11.6946 4.35919 11.8379 3.97927 12.1016 3.67484ZM11.2867 10.151C9.39066 10.151 7.84816 8.67667 7.84816 6.86478C7.84816 5.08478 9.3377 3.63403 11.1877 3.5834C10.9864 3.94083 10.8787 4.3431 10.8787 4.76403C10.8787 6.13729 12.0477 7.25467 13.4847 7.25467C13.9252 7.25467 14.3461 7.15166 14.7203 6.95919C14.6674 8.7272 13.1493 10.151 11.2867 10.151Z" fill="#091316"/>
</svg>
