<svg width="22" height="16" viewBox="0 0 22 16" fill="none" xmlns="http://www.w3.org/2000/svg">
<g clip-path="url(#clip0_3960_643)">
<path d="M16.8912 9.14314H4.29121C3.6623 9.14314 3.24121 8.6848 3.24121 8.00028C3.24121 7.31575 3.6623 6.85742 4.29121 6.85742H16.8912C17.5201 6.85742 17.9412 7.31575 17.9412 8.00028C17.9412 8.6848 17.5201 9.14314 16.8912 9.14314Z" fill="#0A66C2"/>
<path d="M13.7416 16.0006H7.4416C6.81269 16.0006 6.3916 15.5422 6.3916 14.8577C6.3916 14.1732 6.81269 13.7148 7.4416 13.7148H13.7416C14.3705 13.7148 14.7916 14.1732 14.7916 14.8577C14.7916 15.5422 14.3705 16.0006 13.7416 16.0006Z" fill="#0A66C2"/>
<path d="M20.0418 2.28571H1.1418C0.512891 2.28571 0.0917969 1.82738 0.0917969 1.14286C0.0917969 0.458333 0.512891 0 1.1418 0H20.0418C20.6707 0 21.0918 0.458333 21.0918 1.14286C21.0918 1.82738 20.6707 2.28571 20.0418 2.28571Z" fill="#0A66C2"/>
</g>
<defs>
<clipPath id="clip0_3960_643">
<rect width="21" height="16" fill="white" transform="translate(0.0917969)"/>
</clipPath>
</defs>
</svg>
