<svg width="31" height="30" viewBox="0 0 31 30" fill="none" xmlns="http://www.w3.org/2000/svg">
<g clip-path="url(#clip0_3960_528)">
<path d="M14.8511 5.55877C13.4649 6.53372 11.8938 7.63874 11.052 9.46693C9.58983 12.6565 14.0439 16.1356 14.2343 16.2822C14.2785 16.3162 14.3315 16.3332 14.3843 16.3332C14.4404 16.3332 14.4965 16.3141 14.5421 16.2758C14.6305 16.2019 14.6556 16.0763 14.6025 15.974C14.5864 15.9429 12.9876 12.8374 13.047 10.6096C13.068 9.83361 14.1539 8.95336 15.3036 8.02142C16.3565 7.16782 17.5501 6.20038 18.2484 5.06863C19.7814 2.57745 18.0775 0.127873 18.0601 0.103381C17.9924 0.0083413 17.8675 -0.0260534 17.7607 0.0207632C17.654 0.0678728 17.5949 0.183244 17.6193 0.297327C17.6227 0.313557 17.9541 1.93345 17.032 3.60238C16.6522 4.29203 15.8176 4.87902 14.8511 5.55877Z" fill="#DB380E"/>
<path d="M20.6913 6.65719C20.7891 6.58353 20.8178 6.44918 20.7587 6.34195C20.6994 6.23472 20.5705 6.18744 20.456 6.23092C20.2206 6.32045 14.6895 8.45251 14.6895 11.0286C14.6895 12.8044 15.448 13.7425 16.0019 14.4276C16.2192 14.6963 16.4067 14.9283 16.4685 15.1264C16.6426 15.6973 16.2303 16.7291 16.0569 17.0786C16.0069 17.179 16.0314 17.3008 16.1165 17.3741C16.1624 17.4138 16.2198 17.434 16.2772 17.434C16.326 17.434 16.3751 17.4194 16.4176 17.3899C16.5127 17.3238 18.7418 15.7477 18.342 13.8489C18.1931 13.1271 17.8384 12.5998 17.5255 12.1344C17.0407 11.4134 16.6905 10.8927 17.2217 9.93077C17.8441 8.80882 20.6628 6.67851 20.6913 6.65719Z" fill="#DB380E"/>
<path d="M6.29459 17.4757C6.19978 17.7596 6.24455 18.0412 6.42391 18.2903C7.0235 19.1228 9.14735 19.5811 12.4045 19.5811C12.4047 19.5811 12.4048 19.5811 12.4049 19.5811C12.8462 19.5811 13.3122 19.5724 13.7894 19.5553C18.9969 19.3689 20.9284 17.7466 21.0081 17.6776C21.095 17.6024 21.1182 17.4773 21.0642 17.376C21.0102 17.2748 20.8937 17.224 20.7825 17.2546C18.9484 17.7554 15.5238 17.9332 13.1484 17.9332C10.4904 17.9332 9.13675 17.7417 8.80534 17.6003C8.97538 17.3668 10.0242 16.9498 11.3239 16.6942C11.4481 16.6698 11.5335 16.5551 11.5212 16.4291C11.5089 16.3031 11.403 16.207 11.2764 16.207C10.5146 16.207 6.69397 16.2682 6.29459 17.4757Z" fill="#73A1FB"/>
<path d="M23.7204 15.8047C22.6463 15.8047 21.6278 16.3431 21.5849 16.3658C21.4856 16.419 21.4352 16.533 21.4624 16.6424C21.4898 16.7517 21.5881 16.8285 21.7007 16.8286C21.7235 16.8286 23.9919 16.8472 24.1973 18.1432C24.3793 19.2613 22.0511 21.0729 21.1386 21.6767C21.04 21.7419 21.0018 21.8679 21.0475 21.9769C21.0865 22.0696 21.1768 22.1276 21.2742 22.1276C21.2912 22.1276 21.3084 22.1259 21.3255 22.1222C21.5421 22.0759 26.6227 20.9563 26.0855 17.9982C25.7578 16.1853 24.6184 15.8047 23.7204 15.8047Z" fill="#73A1FB"/>
<path d="M20.2352 21.3144C20.2529 21.2197 20.2135 21.1233 20.1346 21.0679L18.9164 20.2146C18.857 20.173 18.7819 20.16 18.7122 20.1784C18.6995 20.1816 17.4255 20.5166 15.576 20.7219C14.8419 20.8042 14.0197 20.8477 13.1981 20.8477C11.349 20.8477 10.14 20.6305 9.9639 20.4711C9.94058 20.4263 9.94796 20.406 9.95212 20.3947C9.98411 20.3057 10.1556 20.2 10.2661 20.1582C10.3881 20.113 10.4539 19.9805 10.416 19.856C10.3781 19.7314 10.2497 19.6581 10.123 19.6885C8.901 19.9834 8.30346 20.3958 8.34694 20.9142C8.42417 21.8333 10.553 22.305 12.3527 22.4297C12.6115 22.4474 12.8914 22.4564 13.1845 22.4564C13.1846 22.4564 13.1848 22.4564 13.1849 22.4564C16.1776 22.4564 20.0141 21.5174 20.0524 21.5078C20.1461 21.485 20.2175 21.4093 20.2352 21.3144Z" fill="#73A1FB"/>
<path d="M11.0516 23.2877C11.1439 23.2277 11.1848 23.1136 11.1521 23.0086C11.1194 22.9035 11.0212 22.8345 10.9108 22.836C10.747 22.8403 9.3083 22.9052 9.20757 23.8212C9.1771 24.095 9.2555 24.3451 9.44072 24.5645C9.95728 25.1767 11.3517 25.5406 13.7029 25.6769C13.981 25.6936 14.2636 25.702 14.5428 25.702C17.532 25.702 19.5451 24.766 19.6294 24.7262C19.7112 24.6875 19.7651 24.6072 19.7699 24.517C19.7747 24.4267 19.7296 24.3411 19.6525 24.294L18.113 23.3541C18.0595 23.3215 17.9956 23.3107 17.9347 23.3232C17.925 23.3253 16.9474 23.528 15.4722 23.7283C15.1931 23.7663 14.8435 23.7855 14.4333 23.7855C12.9597 23.7855 11.3206 23.5448 11.0062 23.3871C11.0017 23.3577 11.0075 23.3203 11.0516 23.2877Z" fill="#73A1FB"/>
<path d="M13.1494 28.5287C19.9963 28.5229 23.6712 27.3053 24.3791 26.5391C24.6297 26.268 24.6568 26.0114 24.6355 25.8437C24.5829 25.4312 24.2071 25.1787 24.1645 25.1513C24.0618 25.0852 23.9238 25.1025 23.8437 25.1949C23.7637 25.2874 23.7618 25.4225 23.8421 25.5149C23.8853 25.5704 23.9102 25.6634 23.784 25.7898C23.501 26.0541 20.6466 26.8565 15.8939 27.0975C15.2429 27.1313 14.56 27.1486 13.8645 27.1487C9.60921 27.1487 6.495 26.5658 6.08619 26.2262C6.24375 25.9998 7.34531 25.6381 8.51678 25.4335C8.6488 25.4104 8.73798 25.286 8.71753 25.1536C8.69708 25.0212 8.57503 24.9301 8.44161 24.9474C8.40856 24.9519 8.29641 24.9586 8.16657 24.9666C6.23367 25.0846 4.00001 25.3476 3.88346 26.3435C3.84807 26.647 3.93825 26.9225 4.15159 27.1623C4.6736 27.7488 6.17402 28.5286 13.1492 28.5286C13.1493 28.5287 13.1493 28.5287 13.1494 28.5287Z" fill="#73A1FB"/>
<path d="M25.7241 26.7532C25.6273 26.7085 25.5129 26.7311 25.4407 26.809C25.4307 26.8199 24.4012 27.8963 21.3061 28.5284C20.1211 28.7658 17.8969 28.8862 14.6952 28.8862C11.4874 28.8862 8.43509 28.76 8.40468 28.7587C8.27718 28.7525 8.16813 28.8452 8.15079 28.9707C8.13339 29.0961 8.21425 29.2144 8.33735 29.2437C8.36911 29.2512 11.5679 30.0006 15.9416 30.0006C18.0393 30.0006 20.0806 29.8302 22.0089 29.494C25.6043 28.8637 25.856 27.081 25.865 27.0054C25.8775 26.8997 25.8207 26.798 25.7241 26.7532Z" fill="#73A1FB"/>
</g>
<defs>
<clipPath id="clip0_3960_528">
<rect width="30" height="30" fill="white" transform="translate(0.324219)"/>
</clipPath>
</defs>
</svg>
