<svg width="26" height="25" viewBox="0 0 26 25" fill="none" xmlns="http://www.w3.org/2000/svg">
<g clip-path="url(#clip0_3960_491)">
<path d="M12.353 0.000204355C11.3333 0.00494068 10.3596 0.0919036 9.50291 0.243515C6.97903 0.689413 6.52078 1.62267 6.52078 3.34381V5.6169H12.485V6.37457H6.52078H4.28245C2.5491 6.37457 1.03128 7.41642 0.556574 9.3984C0.00896654 11.6702 -0.015301 13.0879 0.556574 15.46C0.980549 17.2256 1.993 18.4837 3.72635 18.4837H5.77698V15.7588C5.77698 13.7902 7.48025 12.0538 9.50291 12.0538H15.4602C17.1185 12.0538 18.4423 10.6884 18.4423 9.02301V3.34381C18.4423 1.7275 17.0787 0.51329 15.4602 0.243515C14.4356 0.0729583 13.3725 -0.00453197 12.353 0.000204355ZM9.12752 1.82843C9.74358 1.82843 10.2467 2.33976 10.2467 2.96842C10.2467 3.59488 9.74358 4.10147 9.12752 4.10147C8.50926 4.10147 8.00838 3.59488 8.00838 2.96842C8.00838 2.33971 8.50926 1.82843 9.12752 1.82843Z" fill="url(#paint0_linear_3960_491)"/>
<path d="M19.1858 6.3751V9.02354C19.1858 11.0769 17.445 12.805 15.4599 12.805H9.50264C7.87085 12.805 6.52051 14.2016 6.52051 15.8358V21.515C6.52051 23.1313 7.92602 24.082 9.50264 24.5458C11.3906 25.1009 13.201 25.2012 15.4599 24.5458C16.9614 24.111 18.442 23.2361 18.442 21.515V19.2419H12.4847V18.4842H18.442H21.4241C23.1575 18.4842 23.8034 17.2751 24.4062 15.4604C25.029 13.5921 25.0024 11.7955 24.4062 9.39883C23.9779 7.67324 23.1597 6.375 21.4241 6.375H19.1858V6.3751ZM15.8353 20.7573C16.4536 20.7573 16.9544 21.2639 16.9544 21.8904C16.9544 22.5191 16.4536 23.0304 15.8353 23.0304C15.2192 23.0304 14.7162 22.5191 14.7162 21.8904C14.7161 21.2639 15.2192 20.7573 15.8353 20.7573Z" fill="url(#paint1_linear_3960_491)"/>
</g>
<defs>
<linearGradient id="paint0_linear_3960_491" x1="-0.447824" y1="0.710966" x2="13.3081" y2="12.4419" gradientUnits="userSpaceOnUse">
<stop stop-color="#5A9FD4"/>
<stop offset="1" stop-color="#306998"/>
</linearGradient>
<linearGradient id="paint1_linear_3960_491" x1="18.4835" y1="19.7345" x2="13.5505" y2="12.8166" gradientUnits="userSpaceOnUse">
<stop stop-color="#FFD43B"/>
<stop offset="1" stop-color="#FFE873"/>
</linearGradient>
<clipPath id="clip0_3960_491">
<rect width="25" height="25" fill="white" transform="translate(0.324219)"/>
</clipPath>
</defs>
</svg>
