<svg width="26" height="25" viewBox="0 0 26 25" fill="none" xmlns="http://www.w3.org/2000/svg">
<path d="M21.1642 4.15959L16.5312 8.79258C15.5824 7.84375 14.2717 7.25679 12.8242 7.25679V0.705078C16.081 0.705078 19.03 2.02488 21.1642 4.15959Z" fill="url(#paint0_linear_3960_565)"/>
<path d="M9.1168 8.79217C8.16797 9.74099 7.58101 11.0517 7.58101 12.4991H1.0293C1.0293 9.24237 2.3491 6.29335 4.48381 4.15918L9.1168 8.79217Z" fill="url(#paint1_linear_3960_565)"/>
<path d="M12.8234 0.705078V7.25679C11.3759 7.25679 10.0652 7.84375 9.11639 8.79258L4.4834 4.15959C6.61757 2.02488 9.56659 0.705078 12.8234 0.705078Z" fill="url(#paint2_linear_3960_565)"/>
<path d="M24.6178 12.5001H18.0661C18.0661 11.0527 17.4791 9.74197 16.5303 8.79315L21.1633 4.16016C23.298 6.29432 24.6178 9.24334 24.6178 12.5001Z" fill="url(#paint3_linear_3960_565)"/>
<path d="M24.6178 12.5C24.6178 15.7568 23.298 18.7058 21.1633 20.84L16.5303 16.207C17.4791 15.2581 18.0661 13.9475 18.0661 12.5H24.6178Z" fill="url(#paint4_linear_3960_565)"/>
<path d="M9.1168 16.207L4.48381 20.84C2.3491 18.7058 1.0293 15.7568 1.0293 12.5H7.58101C7.58101 13.9475 8.16797 15.2581 9.1168 16.207Z" fill="url(#paint5_linear_3960_565)"/>
<path d="M21.1642 20.84C19.03 22.9747 16.081 24.2945 12.8242 24.2945V17.7428C14.2717 17.7428 15.5824 17.1559 16.5312 16.207L21.1642 20.84Z" fill="url(#paint6_linear_3960_565)"/>
<path d="M12.8234 17.7428V24.2945C9.56659 24.2945 6.61757 22.9747 4.4834 20.84L9.11639 16.207C10.0652 17.1559 11.3759 17.7428 12.8234 17.7428Z" fill="url(#paint7_linear_3960_565)"/>
<path d="M19.1508 6.17298L16.5312 8.79264C15.5824 7.84381 14.2717 7.25685 12.8242 7.25685V3.55273C15.2952 3.55273 17.5313 4.55401 19.1508 6.17298Z" fill="url(#paint8_linear_3960_565)"/>
<path d="M9.11686 8.79251C8.16803 9.74133 7.58107 11.052 7.58107 12.4995H3.87695C3.87695 10.0285 4.87818 7.79241 6.4972 6.17285L9.11686 8.79251Z" fill="url(#paint9_linear_3960_565)"/>
<path d="M12.8237 3.55273V7.25685C11.3762 7.25685 10.0656 7.84381 9.11673 8.79264L6.49707 6.17298C8.11663 4.55401 10.3528 3.55273 12.8237 3.55273Z" fill="url(#paint10_linear_3960_565)"/>
<path d="M21.7712 12.4995H18.067C18.067 11.052 17.4801 9.74133 16.5312 8.79251L19.1509 6.17285C20.7699 7.79241 21.7712 10.0285 21.7712 12.4995Z" fill="url(#paint11_linear_3960_565)"/>
<path d="M21.7712 12.5C21.7712 14.9709 20.7699 17.2071 19.1509 18.8266L16.5312 16.207C17.4801 15.2581 18.067 13.9475 18.067 12.5H21.7712Z" fill="url(#paint12_linear_3960_565)"/>
<path d="M9.11686 16.207L6.4972 18.8266C4.87823 17.2071 3.87695 14.9709 3.87695 12.5H7.58107C7.58107 13.9475 8.16803 15.2581 9.11686 16.207Z" fill="url(#paint13_linear_3960_565)"/>
<path d="M19.1508 18.8267C17.5313 20.4457 15.2952 21.4469 12.8242 21.4469V17.7428C14.2717 17.7428 15.5824 17.1559 16.5312 16.207L19.1508 18.8267Z" fill="url(#paint14_linear_3960_565)"/>
<path d="M12.8237 17.7428V21.4469C10.3528 21.4469 8.11663 20.4457 6.49707 18.8267L9.11673 16.207C10.0656 17.1559 11.3762 17.7428 12.8237 17.7428Z" fill="url(#paint15_linear_3960_565)"/>
<path d="M22.5256 5.79199L17.7131 10.6045C17.9411 11.1923 18.0665 11.8313 18.0665 12.4995C18.0665 13.9469 17.4795 15.2576 16.5307 16.2065C15.5819 17.1553 14.2712 17.7422 12.8237 17.7422C12.1555 17.7422 11.5165 17.6169 10.9288 17.3889L6.11621 22.2014C8.02062 23.5206 10.3318 24.294 12.8238 24.294C16.0805 24.294 19.0295 22.9742 21.1637 20.8394C23.2984 18.7053 24.6182 15.7563 24.6182 12.4995C24.6182 10.0076 23.8448 7.6964 22.5256 5.79199Z" fill="url(#paint16_linear_3960_565)"/>
<path d="M2.86904 17.3794L0.350117 24.4257C0.228254 24.7666 0.55747 25.0959 0.898401 24.974L7.94473 22.4551C9.35056 21.0493 4.27482 15.9736 2.86904 17.3794Z" fill="url(#paint17_linear_3960_565)"/>
<path d="M16.4511 13.9492L7.94468 22.4547C7.80571 22.2139 7.59453 22.0008 7.32399 21.8498C6.95439 21.6451 6.37635 21.7572 5.97615 21.8785C5.88904 21.9045 5.80939 21.8591 5.77698 21.7896C5.75659 21.7479 5.75292 21.697 5.77512 21.647C5.77605 21.647 5.77605 21.646 5.77605 21.646C5.79831 21.5951 5.81777 21.5432 5.83443 21.4913C5.84184 21.4663 5.84924 21.4413 5.85669 21.4163C5.85762 21.4144 5.85762 21.4135 5.85762 21.4117C5.87894 21.3311 5.89375 21.2505 5.90208 21.168C5.90488 21.1412 5.90674 21.1134 5.90855 21.0865C5.91086 21.0418 5.9113 20.997 5.90983 20.9522C5.89968 20.6391 5.79738 20.328 5.60282 20.0638C5.55556 19.999 5.50277 19.9378 5.44443 19.8795C5.38605 19.8211 5.32492 19.7683 5.26007 19.721C4.95806 19.4987 4.59493 19.3968 4.23738 19.4153C4.21051 19.4172 4.18272 19.4191 4.15586 19.4218C4.07341 19.4301 3.99189 19.4449 3.91223 19.4663C3.91037 19.4663 3.90943 19.4663 3.90757 19.4672C3.88257 19.4746 3.85752 19.482 3.83252 19.4895C3.80566 19.4978 3.77973 19.5071 3.7538 19.5172C3.7288 19.5265 3.70375 19.5367 3.67875 19.5478C3.67782 19.5478 3.67782 19.5478 3.67689 19.5488C3.62684 19.571 3.57591 19.5673 3.53424 19.5469C3.46478 19.5145 3.41939 19.4348 3.44532 19.3477C3.56669 18.9475 3.67875 18.3704 3.47404 18.0008C3.32301 17.7294 3.11091 17.5182 2.86914 17.3793L11.3746 8.87289C11.7581 8.49029 12.3788 8.49029 12.7614 8.87289L13.4849 9.59637L15.7276 11.8391L16.4511 12.5625C16.8336 12.945 16.8336 13.5657 16.4511 13.9492Z" fill="url(#paint18_linear_3960_565)"/>
<path d="M15.7275 11.8394L5.77692 21.79C5.75653 21.7483 5.75286 21.6974 5.77506 21.6474C5.77599 21.6474 5.77599 21.6464 5.77599 21.6464C5.79825 21.5955 5.89457 21.25 5.90197 21.1684C5.9057 21.1407 5.90751 21.1138 5.90844 21.0869C5.92697 20.7294 5.82506 20.3662 5.60276 20.0642C5.5555 19.9994 5.50271 19.9382 5.44438 19.8799C5.38599 19.8215 5.32487 19.7687 5.26001 19.7214C4.958 19.4991 4.59487 19.3972 4.23732 19.4157C4.21045 19.4167 4.18359 19.4185 4.1558 19.4222C4.07428 19.4296 3.99276 19.4445 3.91217 19.4667C3.91031 19.4667 3.90938 19.4667 3.90751 19.4676C3.88251 19.4741 3.70374 19.5371 3.67869 19.5482C3.67776 19.5482 3.67776 19.5482 3.67683 19.5491C3.62678 19.5714 3.57585 19.5677 3.53418 19.5473L13.4848 9.59668L15.7275 11.8394Z" fill="url(#paint19_linear_3960_565)"/>
<path d="M1.77242 23.5514C1.50575 23.2847 1.20772 23.0708 0.89247 22.9082L0.350117 24.4254C0.228254 24.7663 0.55747 25.0956 0.898401 24.9737L2.41561 24.4313C2.25306 24.116 2.03909 23.818 1.77242 23.5514Z" fill="url(#paint20_linear_3960_565)"/>
<path d="M24.5302 0.793467L14.2589 11.0648L12.7564 9.56229C12.4289 9.23479 12.4289 8.70376 12.7564 8.37626L13.655 7.47763C14.0429 7.08974 14.2608 6.56366 14.2608 6.01513V4.89528C14.2608 4.01425 14.8189 3.22994 15.6513 2.94121L24.0505 0.0277807C24.5155 -0.133543 24.8782 0.445428 24.5302 0.793467Z" fill="url(#paint21_linear_3960_565)"/>
<path d="M24.5301 0.792849L14.2588 11.0642L15.7613 12.5667C16.0888 12.8942 16.6198 12.8942 16.9473 12.5667L17.8459 11.668C18.2338 11.2802 18.7599 11.0623 19.3084 11.0623H20.4282C21.3093 11.0623 22.0936 10.5042 22.3823 9.67177L25.2958 1.27246C25.4571 0.807506 24.8781 0.44481 24.5301 0.792849Z" fill="url(#paint22_linear_3960_565)"/>
<path d="M19.6911 6.11488L24.8503 0.955662C24.9787 0.827231 24.994 0.618162 24.8741 0.481692C24.7427 0.332133 24.5148 0.326643 24.3762 0.465123L19.2208 5.62056C18.8833 5.95811 18.4155 6.14292 17.94 6.10091C17.5002 6.06208 17.0456 6.2286 16.7321 6.60066C16.2877 7.12787 16.2948 7.91424 16.7476 8.43424C17.2912 9.05856 18.2392 9.08302 18.8146 8.50767C19.1159 8.20635 19.2526 7.80287 19.2248 7.4088C19.1909 6.92865 19.3507 6.45522 19.6911 6.11488Z" fill="url(#paint23_linear_3960_565)"/>
<path d="M14.1736 6.6084C14.0762 6.93364 13.8994 7.23306 13.655 7.47752L12.7564 8.37614C12.4289 8.70364 12.4289 9.23467 12.7564 9.56217L14.2589 11.0647L15.7614 12.5672C16.0889 12.8947 16.6199 12.8947 16.9474 12.5672L17.846 11.6685C18.0905 11.4241 18.3899 11.2473 18.7151 11.1499L14.1736 6.6084Z" fill="url(#paint24_linear_3960_565)"/>
<path d="M15.1926 15.2069L10.1162 10.1305L12.1393 8.10738C12.3736 7.87306 12.7535 7.87306 12.9877 8.10738L17.2157 12.3354C17.45 12.5697 17.45 12.9495 17.2157 13.1838L15.1926 15.2069Z" fill="url(#paint25_linear_3960_565)"/>
<defs>
<linearGradient id="paint0_linear_3960_565" x1="11.5476" y1="0.261549" x2="19.3451" y2="8.0591" gradientUnits="userSpaceOnUse">
<stop stop-color="#FFF5D9"/>
<stop offset="1" stop-color="#FFCE47"/>
</linearGradient>
<linearGradient id="paint1_linear_3960_565" x1="2.53248" y1="8.10506" x2="6.02273" y2="11.5953" gradientUnits="userSpaceOnUse">
<stop stop-color="#6FA953"/>
<stop offset="1" stop-color="#43765A"/>
</linearGradient>
<linearGradient id="paint2_linear_3960_565" x1="8.22418" y1="2.00312" x2="12.8109" y2="6.58993" gradientUnits="userSpaceOnUse">
<stop stop-color="#E4E08E"/>
<stop offset="1" stop-color="#6FA953"/>
</linearGradient>
<linearGradient id="paint3_linear_3960_565" x1="16.5896" y1="5.30506" x2="24.0341" y2="12.7496" gradientUnits="userSpaceOnUse">
<stop stop-color="#FFCE47"/>
<stop offset="1" stop-color="#FF9356"/>
</linearGradient>
<linearGradient id="paint4_linear_3960_565" x1="18.2434" y1="12.0228" x2="22.5591" y2="16.3386" gradientUnits="userSpaceOnUse">
<stop stop-color="#FF9356"/>
<stop offset="1" stop-color="#FF755C"/>
</linearGradient>
<linearGradient id="paint5_linear_3960_565" x1="1.91062" y1="12.5482" x2="6.98891" y2="17.6265" gradientUnits="userSpaceOnUse">
<stop stop-color="#7ACBFF"/>
<stop offset="1" stop-color="#45A2E0"/>
</linearGradient>
<linearGradient id="paint6_linear_3960_565" x1="12.8159" y1="18.389" x2="17.0762" y2="22.6493" gradientUnits="userSpaceOnUse">
<stop stop-color="#FF755C"/>
<stop offset="1" stop-color="#FF4181"/>
</linearGradient>
<linearGradient id="paint7_linear_3960_565" x1="5.54286" y1="16.1809" x2="15.8446" y2="26.4826" gradientUnits="userSpaceOnUse">
<stop stop-color="#FF4181"/>
<stop offset="1" stop-color="#843561"/>
</linearGradient>
<linearGradient id="paint8_linear_3960_565" x1="17.5337" y1="8.26107" x2="12.7346" y2="3.462" gradientUnits="userSpaceOnUse">
<stop stop-color="#FFF5D9"/>
<stop offset="1" stop-color="#FFCE47"/>
</linearGradient>
<linearGradient id="paint9_linear_3960_565" x1="8.05122" y1="12.2003" x2="2.10318" y2="6.25226" gradientUnits="userSpaceOnUse">
<stop stop-color="#6FA953"/>
<stop offset="1" stop-color="#43765A"/>
</linearGradient>
<linearGradient id="paint10_linear_3960_565" x1="12.2111" y1="7.41357" x2="6.91766" y2="2.12014" gradientUnits="userSpaceOnUse">
<stop stop-color="#E4E08E"/>
<stop offset="1" stop-color="#6FA953"/>
</linearGradient>
<linearGradient id="paint11_linear_3960_565" x1="21.7147" y1="12.4419" x2="16.1266" y2="6.85378" gradientUnits="userSpaceOnUse">
<stop stop-color="#FFCE47"/>
<stop offset="1" stop-color="#FF9356"/>
</linearGradient>
<linearGradient id="paint12_linear_3960_565" x1="21.3295" y1="16.5318" x2="17.5962" y2="12.7984" gradientUnits="userSpaceOnUse">
<stop stop-color="#FF9356"/>
<stop offset="1" stop-color="#FF755C"/>
</linearGradient>
<linearGradient id="paint13_linear_3960_565" x1="9.51803" y1="18.1422" x2="2.62519" y2="11.2494" gradientUnits="userSpaceOnUse">
<stop stop-color="#7ACBFF"/>
<stop offset="1" stop-color="#45A2E0"/>
</linearGradient>
<linearGradient id="paint14_linear_3960_565" x1="17.0554" y1="21.2047" x2="12.0314" y2="16.1807" gradientUnits="userSpaceOnUse">
<stop stop-color="#FF755C"/>
<stop offset="1" stop-color="#FF4181"/>
</linearGradient>
<linearGradient id="paint15_linear_3960_565" x1="12.9371" y1="21.5614" x2="6.8057" y2="15.4301" gradientUnits="userSpaceOnUse">
<stop stop-color="#FF4181"/>
<stop offset="1" stop-color="#843561"/>
</linearGradient>
<linearGradient id="paint16_linear_3960_565" x1="17.8876" y1="17.5634" x2="14.3243" y2="14.0001" gradientUnits="userSpaceOnUse">
<stop stop-color="#843561" stop-opacity="0"/>
<stop offset="1" stop-color="#3A2F4D"/>
</linearGradient>
<linearGradient id="paint17_linear_3960_565" x1="0.92441" y1="19.3226" x2="5.99939" y2="24.3975" gradientUnits="userSpaceOnUse">
<stop stop-color="#FFE0EA"/>
<stop offset="1" stop-color="#FFC0D5"/>
</linearGradient>
<linearGradient id="paint18_linear_3960_565" x1="2.86914" y1="15.5203" x2="16.738" y2="15.5203" gradientUnits="userSpaceOnUse">
<stop stop-color="#FFCE47"/>
<stop offset="1" stop-color="#FF9356"/>
</linearGradient>
<linearGradient id="paint19_linear_3960_565" x1="11.7369" y1="17.7994" x2="6.6129" y2="12.6755" gradientUnits="userSpaceOnUse">
<stop stop-color="#FFCE47"/>
<stop offset="1" stop-color="#FF9356"/>
</linearGradient>
<linearGradient id="paint20_linear_3960_565" x1="0.964598" y1="24.0506" x2="2.25952" y2="25.3455" gradientUnits="userSpaceOnUse">
<stop stop-color="#2F73A0"/>
<stop offset="1" stop-color="#174461"/>
</linearGradient>
<linearGradient id="paint21_linear_3960_565" x1="18.3602" y1="4.3877" x2="19.0285" y2="5.4856" gradientUnits="userSpaceOnUse">
<stop stop-color="#EDF5FF"/>
<stop offset="1" stop-color="#C7E9FF"/>
</linearGradient>
<linearGradient id="paint22_linear_3960_565" x1="20.0573" y1="6.49963" x2="20.9642" y2="8.12258" gradientUnits="userSpaceOnUse">
<stop stop-color="#EDF5FF"/>
<stop offset="1" stop-color="#C7E9FF"/>
</linearGradient>
<linearGradient id="paint23_linear_3960_565" x1="21.7712" y1="5.41458" x2="20.2137" y2="3.85717" gradientUnits="userSpaceOnUse">
<stop stop-color="#2F73A0"/>
<stop offset="1" stop-color="#174461"/>
</linearGradient>
<linearGradient id="paint24_linear_3960_565" x1="15.8702" y1="9.45249" x2="15.0194" y2="10.3033" gradientUnits="userSpaceOnUse">
<stop stop-color="#7ACBFF" stop-opacity="0"/>
<stop offset="1" stop-color="#2F73A0"/>
</linearGradient>
<linearGradient id="paint25_linear_3960_565" x1="14.2757" y1="10.6939" x2="12.9512" y2="12.8212" gradientUnits="userSpaceOnUse">
<stop stop-color="#2F73A0"/>
<stop offset="1" stop-color="#174461"/>
</linearGradient>
</defs>
</svg>
