<svg width="14" height="17" viewBox="0 0 14 17" fill="none" xmlns="http://www.w3.org/2000/svg">
<path d="M12.7136 7.08429C12.556 7.08429 12.4074 7.02366 12.2953 6.9115L6.81154 1.42474L1.32479 6.9115C1.09137 7.13885 0.715483 7.13279 0.491162 6.89634C0.269873 6.66899 0.269873 6.30523 0.491162 6.07484L6.39322 0.172787C6.6236 -0.0575958 6.99646 -0.0575958 7.22684 0.172787L13.1319 6.07787C13.3623 6.30826 13.3623 6.68111 13.1319 6.9115C13.0198 7.02366 12.8712 7.08429 12.7136 7.08429Z" fill="#0A66C2"/>
<path d="M6.81182 14.7597C6.48443 14.7597 6.2207 14.496 6.2207 14.1686V0.591115C6.2207 0.263728 6.48443 0 6.81182 0C7.1392 0 7.40293 0.263728 7.40293 0.591115V14.1686C7.40293 14.496 7.1392 14.7597 6.81182 14.7597Z" fill="#0A66C2"/>
<path d="M6.81182 16.5299C7.13828 16.5299 7.40293 16.2652 7.40293 15.9388C7.40293 15.6123 7.13828 15.3477 6.81182 15.3477C6.48535 15.3477 6.2207 15.6123 6.2207 15.9388C6.2207 16.2652 6.48535 16.5299 6.81182 16.5299Z" fill="#0A66C2"/>
</svg>
