<svg width="35" height="35" viewBox="0 0 35 35" fill="none" xmlns="http://www.w3.org/2000/svg">
<rect width="35" height="35" rx="3" fill="#F4F4F4"/>
<path d="M30.6 9.16667H24.5333V7.31481C24.5317 6.03692 23.4881 5.00158 22.2 5H13.8C12.5119 5.00158 11.4683 6.03692 11.4667 7.31481V9.16667H5.4C4.62686 9.16667 4 9.78855 4 10.5556V20.861C4.00296 21.4483 4.37598 21.9707 4.93333 22.1681V28.6111C4.93333 29.3781 5.56019 30 6.33333 30H29.6667C30.4398 30 31.0667 29.3781 31.0667 28.6111V22.1685C31.624 21.9709 31.9973 21.4483 32 20.861V10.5556C32 9.78855 31.3731 9.16667 30.6 9.16667ZM12.4 7.31481C12.4 6.54781 13.0269 5.92593 13.8 5.92593H22.2C22.9731 5.92593 23.6 6.54781 23.6 7.31481V9.16667H22.6667V7.31481C22.6667 7.05915 22.4577 6.85185 22.2 6.85185H13.8C13.5423 6.85185 13.3333 7.05915 13.3333 7.31481V9.16667H12.4V7.31481ZM21.7333 9.16667H14.2667V7.77778H21.7333V9.16667ZM30.1333 28.6111C30.1333 28.8668 29.9244 29.0741 29.6667 29.0741H6.33333C6.07562 29.0741 5.86667 28.8668 5.86667 28.6111V22.3272L16.1333 23.7319V24.9074C16.1333 25.6744 16.7602 26.2963 17.5333 26.2963H18.4667C19.2398 26.2963 19.8667 25.6744 19.8667 24.9074V23.7319L30.1333 22.3272V28.6111ZM18.9333 24.9074C18.9333 25.1631 18.7244 25.3704 18.4667 25.3704H17.5333C17.2756 25.3704 17.0667 25.1631 17.0667 24.9074V22.1296C17.0667 21.874 17.2756 21.6667 17.5333 21.6667H18.4667C18.7244 21.6667 18.9333 21.874 18.9333 22.1296V24.9074ZM31.0667 20.861C31.0669 21.0918 30.8958 21.2876 30.6654 21.3199L30.536 21.3375L19.8667 22.7972V22.1296C19.8667 21.3626 19.2398 20.7407 18.4667 20.7407H17.5333C16.7602 20.7407 16.1333 21.3626 16.1333 22.1296V22.7972L5.33506 21.3199C5.10469 21.2878 4.93311 21.092 4.93333 20.861V10.5556C4.93333 10.2999 5.14229 10.0926 5.4 10.0926H30.6C30.8577 10.0926 31.0667 10.2999 31.0667 10.5556V20.861Z" fill="#091316"/>
</svg>
