<svg width="35" height="35" viewBox="0 0 35 35" fill="none" xmlns="http://www.w3.org/2000/svg">
<rect width="35" height="35" rx="3" fill="#EAF4FF"/>
<path d="M7.51116 16.5079H14.2076C14.8734 16.5072 15.5116 16.2472 15.9824 15.7848C16.4532 15.3225 16.718 14.6957 16.7188 14.042V7.46599C16.718 6.81219 16.4532 6.18539 15.9824 5.72309C15.5116 5.26079 14.8734 5.00074 14.2076 5H7.51116C6.84539 5.00074 6.2071 5.26079 5.73633 5.72309C5.26556 6.18539 5.00075 6.81219 5 7.46599V14.042C5.00075 14.6957 5.26556 15.3225 5.73633 15.7848C6.2071 16.2472 6.84539 16.5072 7.51116 16.5079ZM6.67411 7.46599C6.67411 7.24798 6.7623 7.0389 6.91927 6.88475C7.07625 6.73059 7.28916 6.64399 7.51116 6.64399H14.2076C14.4296 6.64399 14.6425 6.73059 14.7995 6.88475C14.9565 7.0389 15.0446 7.24798 15.0446 7.46599V14.042C15.0446 14.26 14.9565 14.469 14.7995 14.6232C14.6425 14.7773 14.4296 14.8639 14.2076 14.8639H7.51116C7.28916 14.8639 7.07625 14.7773 6.91927 14.6232C6.7623 14.469 6.67411 14.26 6.67411 14.042V7.46599Z" fill="#0A66C2"/>
<path d="M7.51116 30.0001H14.2076C14.8734 29.9994 15.5116 29.7393 15.9824 29.277C16.4532 28.8147 16.718 28.1879 16.7188 27.5341V20.9582C16.718 20.3044 16.4532 19.6776 15.9824 19.2153C15.5116 18.753 14.8734 18.4929 14.2076 18.4922H7.51116C6.84539 18.4929 6.2071 18.753 5.73633 19.2153C5.26556 19.6776 5.00075 20.3044 5 20.9582V27.5341C5.00075 28.1879 5.26556 28.8147 5.73633 29.277C6.2071 29.7393 6.84539 29.9994 7.51116 30.0001ZM6.67411 20.9582C6.67411 20.7402 6.7623 20.5311 6.91927 20.3769C7.07625 20.2228 7.28916 20.1362 7.51116 20.1362H14.2076C14.4296 20.1362 14.6425 20.2228 14.7995 20.3769C14.9565 20.5311 15.0446 20.7402 15.0446 20.9582V27.5341C15.0446 27.7521 14.9565 27.9612 14.7995 28.1154C14.6425 28.2695 14.4296 28.3561 14.2076 28.3561H7.51116C7.28916 28.3561 7.07625 28.2695 6.91927 28.1154C6.7623 27.9612 6.67411 27.7521 6.67411 27.5341V20.9582Z" fill="#0A66C2"/>
<path d="M27.4888 5H20.7924C20.1266 5.00074 19.4884 5.26079 19.0176 5.72309C18.5468 6.18539 18.282 6.81219 18.2812 7.46599V14.042C18.282 14.6957 18.5468 15.3225 19.0176 15.7848C19.4884 16.2472 20.1266 16.5072 20.7924 16.5079H27.4888C28.1546 16.5072 28.7929 16.2472 29.2637 15.7848C29.7344 15.3225 29.9992 14.6957 30 14.042V7.46599C29.9992 6.81219 29.7344 6.18539 29.2637 5.72309C28.7929 5.26079 28.1546 5.00074 27.4888 5ZM28.3259 14.042C28.3259 14.26 28.2377 14.469 28.0807 14.6232C27.9237 14.7773 27.7108 14.8639 27.4888 14.8639H20.7924C20.5704 14.8639 20.3575 14.7773 20.2005 14.6232C20.0435 14.469 19.9554 14.26 19.9554 14.042V7.46599C19.9554 7.24798 20.0435 7.0389 20.2005 6.88475C20.3575 6.73059 20.5704 6.64399 20.7924 6.64399H27.4888C27.7108 6.64399 27.9237 6.73059 28.0807 6.88475C28.2377 7.0389 28.3259 7.24798 28.3259 7.46599V14.042Z" fill="#0A66C2"/>
<path d="M24.1406 18.4922C22.9818 18.4922 21.8489 18.8297 20.8853 19.4619C19.9218 20.0942 19.1708 20.9928 18.7273 22.0442C18.2838 23.0956 18.1678 24.2525 18.3938 25.3687C18.6199 26.4849 19.178 27.5101 19.9974 28.3148C20.8169 29.1195 21.8609 29.6675 22.9975 29.8896C24.1341 30.1116 25.3123 29.9976 26.3829 29.5621C27.4536 29.1266 28.3687 28.3891 29.0125 27.4429C29.6564 26.4967 30 25.3842 30 24.2462C29.9981 22.7207 29.3802 21.2582 28.2818 20.1795C27.1833 19.1008 25.6941 18.494 24.1406 18.4922ZM24.1406 28.3561C23.3129 28.3561 22.5037 28.1151 21.8154 27.6635C21.1272 27.2119 20.5907 26.57 20.2739 25.819C19.9572 25.068 19.8743 24.2416 20.0358 23.4443C20.1973 22.6471 20.5959 21.9148 21.1812 21.34C21.7665 20.7652 22.5123 20.3737 23.3241 20.2151C24.136 20.0566 24.9775 20.138 25.7423 20.449C26.507 20.7601 27.1607 21.2869 27.6205 21.9628C28.0804 22.6387 28.3259 23.4333 28.3259 24.2462C28.3246 25.3358 27.8832 26.3804 27.0986 27.1509C26.314 27.9214 25.2502 28.3548 24.1406 28.3561Z" fill="#0A66C2"/>
</svg>
