<svg width="35" height="35" viewBox="0 0 35 35" fill="none" xmlns="http://www.w3.org/2000/svg">
<rect width="35" height="35" rx="3" fill="#F4F4F4"/>
<g clip-path="url(#clip0_3960_925)">
<path d="M29.2676 7.92969H25.483C25.1427 6.26016 23.6631 5 21.8945 5C20.126 5 18.6464 6.26016 18.3061 7.92969H5.73242C5.32793 7.92969 5 8.25762 5 8.66211C5 9.0666 5.32793 9.39453 5.73242 9.39453H18.3061C18.6463 11.0641 20.126 12.3242 21.8945 12.3242C23.6631 12.3242 25.1427 11.0641 25.483 9.39453H29.2676C29.6721 9.39453 30 9.0666 30 8.66211C30 8.25762 29.6721 7.92969 29.2676 7.92969ZM21.8945 10.8594C20.6832 10.8594 19.6976 9.87402 19.6973 8.66274C19.6973 8.66255 19.6973 8.66235 19.6973 8.66211C19.6973 8.66187 19.6973 8.66167 19.6973 8.66147C19.6976 7.4502 20.6832 6.46484 21.8945 6.46484C23.1061 6.46484 24.0918 7.45054 24.0918 8.66211C24.0918 9.87368 23.1061 10.8594 21.8945 10.8594Z" fill="#091316"/>
<path d="M29.2676 16.7676H16.6939C16.3537 15.098 14.874 13.8379 13.1055 13.8379C11.3369 13.8379 9.85732 15.098 9.51704 16.7676H5.73242C5.32793 16.7676 5 17.0955 5 17.5C5 17.9045 5.32793 18.2324 5.73242 18.2324H9.51704C9.85728 19.902 11.3369 21.1621 13.1055 21.1621C14.874 21.1621 16.3536 19.902 16.6939 18.2324H29.2676C29.6721 18.2324 30 17.9045 30 17.5C30 17.0955 29.6721 16.7676 29.2676 16.7676ZM13.1055 19.6973C11.8941 19.6973 10.9085 18.7119 10.9082 17.5006C10.9082 17.5004 10.9083 17.5002 10.9083 17.5C10.9083 17.4998 10.9082 17.4996 10.9082 17.4994C10.9085 16.2881 11.8941 15.3027 13.1055 15.3027C14.317 15.3027 15.3027 16.2884 15.3027 17.5C15.3027 18.7116 14.317 19.6973 13.1055 19.6973Z" fill="#091316"/>
<path d="M29.2676 25.6055H25.483C25.1427 23.9359 23.6631 22.6758 21.8945 22.6758C20.126 22.6758 18.6464 23.9359 18.3061 25.6055H5.73242C5.32793 25.6055 5 25.9334 5 26.3379C5 26.7424 5.32793 27.0703 5.73242 27.0703H18.3061C18.6463 28.7398 20.126 30 21.8945 30C23.6631 30 25.1427 28.7398 25.483 27.0703H29.2676C29.6721 27.0703 30 26.7424 30 26.3379C30 25.9334 29.6721 25.6055 29.2676 25.6055ZM21.8945 28.5352C20.6832 28.5352 19.6976 27.5498 19.6973 26.3385C19.6973 26.3383 19.6973 26.3381 19.6973 26.3379C19.6973 26.3376 19.6973 26.3375 19.6973 26.3373C19.6976 25.126 20.6832 24.1406 21.8945 24.1406C23.1061 24.1406 24.0918 25.1263 24.0918 26.3379C24.0918 27.5495 23.1061 28.5352 21.8945 28.5352Z" fill="#091316"/>
</g>
<defs>
<clipPath id="clip0_3960_925">
<rect width="25" height="25" fill="white" transform="translate(5 5)"/>
</clipPath>
</defs>
</svg>
