<svg width="35" height="35" viewBox="0 0 35 35" fill="none" xmlns="http://www.w3.org/2000/svg">
<rect width="35" height="35" rx="3" fill="#EAF4FF"/>
<path d="M17.5918 22.2412L20.1102 24.5041" stroke="#091316" stroke-miterlimit="10" stroke-linecap="round" stroke-linejoin="round"/>
<path d="M18.6641 21.0557L21.1825 23.3186" stroke="#091316" stroke-miterlimit="10" stroke-linecap="round" stroke-linejoin="round"/>
<path d="M27.9335 15.7219L25.415 13.459" stroke="#091316" stroke-miterlimit="10" stroke-linecap="round" stroke-linejoin="round"/>
<path d="M26.7547 17.0696L24.2363 14.8066" stroke="#091316" stroke-miterlimit="10" stroke-linecap="round" stroke-linejoin="round"/>
<path d="M25.6832 18.2543V28.3836C25.6832 29.2996 24.9866 30 24.0757 30H6.6075C5.75017 30 5 29.2996 5 28.3836V6.61638C5 5.75431 5.69658 5 6.6075 5H24.0757C24.933 5 25.6832 5.70043 25.6832 6.61638V13.1897" stroke="#091316" stroke-miterlimit="10" stroke-linecap="round" stroke-linejoin="round"/>
<path d="M17.2168 17.5H19.0386" stroke="#091316" stroke-miterlimit="10" stroke-linecap="round" stroke-linejoin="round"/>
<path d="M7.67969 17.5H8.2691" stroke="#091316" stroke-miterlimit="10" stroke-linecap="round" stroke-linejoin="round"/>
<path d="M7.73242 20.625H16.145" stroke="#091316" stroke-miterlimit="10" stroke-linecap="round" stroke-linejoin="round"/>
<path d="M7.73242 23.6963H14.1624" stroke="#091316" stroke-miterlimit="10" stroke-linecap="round" stroke-linejoin="round"/>
<path d="M18.9854 26.8213H23.0041" stroke="#091316" stroke-miterlimit="10" stroke-linecap="round" stroke-linejoin="round"/>
<path d="M7.73242 26.8213H14.5911" stroke="#091316" stroke-miterlimit="10" stroke-linecap="round" stroke-linejoin="round"/>
<path d="M20.4316 8.23242H23.0036" stroke="#091316" stroke-miterlimit="10" stroke-linecap="round" stroke-linejoin="round"/>
<path d="M17.5918 8.23242H18.2884" stroke="#091316" stroke-miterlimit="10" stroke-linecap="round" stroke-linejoin="round"/>
<path d="M19.3604 11.3037H23.004" stroke="#091316" stroke-miterlimit="10" stroke-linecap="round" stroke-linejoin="round"/>
<path d="M18.5566 14.4287H23.0041" stroke="#091316" stroke-miterlimit="10" stroke-linecap="round" stroke-linejoin="round"/>
<path d="M16.0914 13.7281C15.9843 14.213 15.8235 14.6441 15.5556 15.0751L16.2522 15.991L15.4484 16.7992L14.5375 16.0988C14.1624 16.3682 13.6802 16.5298 13.1979 16.6376L13.0372 17.7691H11.9119L11.7512 16.6376C11.2689 16.5298 10.8403 16.3682 10.4116 16.0988L9.50067 16.7992L8.69692 15.991L9.39351 15.0751C9.12559 14.6979 8.96484 14.213 8.85767 13.7281L7.73242 13.5665V12.435L8.85767 12.2734C8.96484 11.7885 9.12559 11.3574 9.39351 10.9264L8.69692 10.0104L9.50067 9.20225L10.4116 9.90268C10.7867 9.63328 11.2689 9.47165 11.7512 9.36389L11.9119 8.23242H13.0372L13.1979 9.36389C13.6802 9.47165 14.1088 9.63328 14.5375 9.90268L15.4484 9.20225L16.2522 10.0104L15.5556 10.9264C15.8235 11.3035 15.9843 11.7885 16.0914 12.2734L17.2167 12.435V13.5665L16.0914 13.7281Z" stroke="#091316" stroke-miterlimit="10" stroke-linecap="round" stroke-linejoin="round"/>
<path d="M12.4473 14.2128C13.1279 14.2128 13.6797 13.658 13.6797 12.9736C13.6797 12.2892 13.1279 11.7344 12.4473 11.7344C11.7666 11.7344 11.2148 12.2892 11.2148 12.9736C11.2148 13.658 11.7666 14.2128 12.4473 14.2128Z" stroke="#091316" stroke-miterlimit="10" stroke-linecap="round" stroke-linejoin="round"/>
<path d="M19.3599 25.4206L16.3057 26.2827L16.8415 23.1577L27.0223 11.6814C27.6653 10.981 28.737 10.9271 29.4336 11.5198C30.1302 12.1663 30.1838 13.2439 29.5943 13.9443L19.3599 25.4206Z" stroke="#091316" stroke-miterlimit="10" stroke-linecap="round" stroke-linejoin="round"/>
</svg>
