<svg width="35" height="35" viewBox="0 0 35 35" fill="none" xmlns="http://www.w3.org/2000/svg">
<rect width="35" height="35" rx="3" fill="#F4F4F4"/>
<path d="M7.83345 13.2974C7.74268 13.2065 7.6167 13.1543 7.48828 13.1543C7.35986 13.1543 7.23394 13.2065 7.14307 13.2974C7.0522 13.3882 7 13.5142 7 13.6426C7 13.771 7.0522 13.897 7.14307 13.9877C7.23389 14.0786 7.35986 14.1309 7.48828 14.1309C7.6167 14.1309 7.74268 14.0786 7.83345 13.9877C7.92432 13.897 7.97656 13.771 7.97656 13.6426C7.97656 13.5142 7.92432 13.3882 7.83345 13.2974Z" fill="#091316"/>
<path d="M26.2383 5H16.3587C16.0891 5 15.8705 5.21865 15.8705 5.48828C15.8705 5.75791 16.0891 5.97656 16.3587 5.97656H26.2383C26.5075 5.97656 26.7266 6.19561 26.7266 6.46484V28.5352C26.7266 28.8044 26.5075 29.0234 26.2383 29.0234H8.46484C8.19561 29.0234 7.97656 28.8044 7.97656 28.5352V15.4655C7.97656 15.1958 7.75791 14.9772 7.48828 14.9772C7.21865 14.9772 7 15.1958 7 15.4655V28.5352C7 29.3429 7.65713 30 8.46484 30H26.2383C27.046 30 27.7031 29.3429 27.7031 28.5352V6.46484C27.7031 5.65713 27.046 5 26.2383 5Z" fill="#091316"/>
<path d="M17.3518 6.95312C17.0195 6.95312 16.6857 6.97852 16.3594 7.02852C16.0928 7.06943 15.9099 7.3186 15.9507 7.58516C15.9916 7.85171 16.2409 8.03442 16.5074 7.9938C16.7849 7.95122 17.069 7.92969 17.3518 7.92969C20.3942 7.92969 22.8694 10.4049 22.8694 13.4473C22.8694 14.7984 22.381 16.0373 21.5718 16.9976C21.2138 16.3819 20.7247 15.8508 20.1311 15.4388C19.7847 15.1984 19.4125 15.0065 19.0228 14.8645C19.4675 14.4297 19.7443 13.8239 19.7443 13.1544V12.6783C19.7443 11.359 18.6711 10.2857 17.3518 10.2857C16.0325 10.2857 14.9592 11.359 14.9592 12.6783V13.1544C14.9592 13.8239 15.2359 14.4297 15.6807 14.8645C15.2911 15.0065 14.9189 15.1984 14.5724 15.4388C13.976 15.8528 13.485 16.3869 13.1265 17.0063C12.5099 16.2736 12.079 15.3725 11.9104 14.3671C11.8658 14.1013 11.6138 13.9219 11.3481 13.9664C11.0821 14.0109 10.9026 14.2627 10.9472 14.5287C11.1983 16.0257 11.9755 17.396 13.1357 18.3871C14.3091 19.3895 15.8064 19.9416 17.3517 19.9416C20.9326 19.9416 23.8459 17.0283 23.8459 13.4474C23.8459 9.86646 20.9327 6.95312 17.3518 6.95312ZM15.9358 12.6783C15.9358 11.8975 16.571 11.2622 17.3518 11.2622C18.1325 11.2622 18.7678 11.8975 18.7678 12.6783V13.1543C18.7678 13.9351 18.1325 14.5704 17.3518 14.5704C16.571 14.5704 15.9358 13.9351 15.9358 13.1543V12.6783ZM17.3518 18.9649C16.0298 18.9649 14.8076 18.5033 13.8511 17.7207C14.5067 16.39 15.8471 15.5469 17.3518 15.5469C18.8533 15.5469 20.1911 16.3866 20.8483 17.7124C19.8958 18.4947 18.6776 18.9649 17.3518 18.9649Z" fill="#091316"/>
<path d="M21.8613 24.4336H14.9277C14.6581 24.4336 14.4395 24.6522 14.4395 24.9219C14.4395 25.1915 14.6581 25.4102 14.9277 25.4102H21.8613C22.131 25.4102 22.3496 25.1915 22.3496 24.9219C22.3496 24.6522 22.131 24.4336 21.8613 24.4336Z" fill="#091316"/>
<path d="M13.187 21.8423C13.0962 21.7514 12.9702 21.6992 12.8418 21.6992C12.7134 21.6992 12.5874 21.7515 12.4966 21.8423C12.4058 21.9331 12.3535 22.0591 12.3535 22.1875C12.3535 22.3164 12.4058 22.4419 12.4966 22.5327C12.5874 22.6235 12.7134 22.6758 12.8418 22.6758C12.9702 22.6758 13.0962 22.6235 13.187 22.5327C13.2783 22.4419 13.3301 22.3159 13.3301 22.1875C13.3301 22.0591 13.2783 21.9331 13.187 21.8423Z" fill="#091316"/>
<path d="M13.187 24.5767C13.0962 24.4858 12.9707 24.4336 12.8418 24.4336C12.7134 24.4336 12.5874 24.4858 12.4966 24.5767C12.4058 24.6675 12.3535 24.7935 12.3535 24.9219C12.3535 25.0507 12.4058 25.1763 12.4966 25.267C12.5874 25.3579 12.7134 25.4102 12.8418 25.4102C12.9702 25.4102 13.0962 25.3579 13.187 25.267C13.2783 25.1763 13.3301 25.0508 13.3301 24.9219C13.3301 24.7935 13.2783 24.6675 13.187 24.5767Z" fill="#091316"/>
<path d="M21.8613 21.6992H14.9277C14.6581 21.6992 14.4395 21.9179 14.4395 22.1875C14.4395 22.4571 14.6581 22.6758 14.9277 22.6758H21.8613C22.131 22.6758 22.3496 22.4571 22.3496 22.1875C22.3496 21.9179 22.131 21.6992 21.8613 21.6992Z" fill="#091316"/>
<path d="M12.7436 7.81387C12.5529 7.62324 12.2438 7.62324 12.0531 7.81387L10.4629 9.404L9.91952 8.8606C9.72875 8.66997 9.41967 8.66997 9.22894 8.8606C9.03827 9.05132 9.03827 9.3605 9.22894 9.55117L10.1176 10.4398C10.213 10.5352 10.3379 10.5829 10.4629 10.5829C10.5879 10.5829 10.7128 10.5352 10.8082 10.4399L12.7436 8.50444C12.9343 8.31372 12.9343 8.00454 12.7436 7.81387Z" fill="#091316"/>
<path d="M11.0039 5C8.79614 5 7 6.79614 7 9.00391C7 11.2117 8.79614 13.0078 11.0039 13.0078C13.2117 13.0078 15.0078 11.2117 15.0078 9.00391C15.0078 6.79614 13.2117 5 11.0039 5ZM11.0039 12.0312C9.33462 12.0312 7.97656 10.6732 7.97656 9.00391C7.97656 7.33462 9.33462 5.97656 11.0039 5.97656C12.6732 5.97656 14.0312 7.33462 14.0312 9.00391C14.0312 10.6732 12.6732 12.0312 11.0039 12.0312Z" fill="#091316"/>
</svg>
