<svg width="35" height="35" viewBox="0 0 35 35" fill="none" xmlns="http://www.w3.org/2000/svg">
<rect width="35" height="35" rx="3" fill="#F4F4F4"/>
<path d="M25.454 5C25.8544 5.12253 26.2408 5.2691 26.5726 5.53937C27.2146 6.06292 27.5587 6.74065 27.5616 7.56085C27.5734 10.8668 27.5675 14.1729 27.5663 17.4789C27.5663 17.551 27.5933 17.6436 27.5165 17.6858C27.4315 17.7321 27.3858 17.6389 27.3307 17.5961C27.126 17.4378 26.9332 17.2625 26.718 17.1212C26.5445 17.0069 26.4841 16.875 26.4847 16.668C26.4911 13.7208 26.4888 10.7742 26.4893 7.82702C26.4893 7.65113 26.48 7.4776 26.4495 7.30406C26.3264 6.59584 25.7442 6.08637 25.0225 6.0635C24.8888 6.0594 24.7551 6.05998 24.6221 6.05998C19.3456 6.05998 14.0697 6.05998 8.79324 6.05998C8.5429 6.05998 8.29549 6.06174 8.05395 6.15379C7.48174 6.37305 7.09421 6.90246 7.08307 7.5157C7.07545 7.92492 7.07956 8.33356 7.07956 8.74278C7.07956 15.1291 7.0819 21.5159 7.07663 27.9022C7.07604 28.6198 7.35862 29.1381 8.0176 29.4406C8.2779 29.5602 8.55462 29.5467 8.82959 29.5467C14.0638 29.5479 19.2987 29.5508 24.5329 29.5397C24.8859 29.5391 25.1245 29.6124 25.2535 29.9571C25.3021 30.0879 25.3954 30.2022 25.4645 30.3259C25.5789 30.5311 25.556 30.5803 25.3156 30.6079C25.1169 30.6302 24.9164 30.646 24.7164 30.646C19.4236 30.6477 14.1307 30.6454 8.83779 30.6495C7.88803 30.6501 7.08542 30.3511 6.50384 29.5719C6.1808 29.1393 6.0014 28.6491 6.0014 28.1057C6.00023 21.2351 5.99847 14.364 6.00257 7.49343C6.00316 6.40413 6.80694 5.3758 7.85872 5.08091C7.94666 5.05628 8.03343 5.02697 8.12078 5C13.8979 5 19.6762 5 25.454 5Z" fill="#091316"/>
<path d="M14.9632 11.6776C15.4176 11.8336 15.8221 12.0059 16.1733 12.2815C16.6464 12.6538 17.0416 13.0853 17.2444 13.6674C17.4197 14.1705 17.3283 14.3856 16.8305 14.5844C16.2008 14.8353 15.5319 14.8892 14.8671 14.9221C13.9419 14.9678 13.015 14.9537 12.0987 14.7837C11.8437 14.7362 11.5933 14.6729 11.3524 14.5762C10.9027 14.3944 10.7977 14.1711 10.956 13.7091C11.2216 12.9334 11.7704 12.4052 12.4645 12.0059C12.702 11.8693 12.9629 11.7867 13.232 11.6688C12.7582 11.2614 12.4581 10.7789 12.3496 10.1785C12.1731 9.20238 12.7964 8.27079 13.7619 8.08787C14.744 7.90202 15.6662 8.51409 15.852 9.49083C16.0044 10.2923 15.6961 10.9436 15.1502 11.5064C15.1039 11.5551 15.0517 11.5973 14.9632 11.6776ZM13.8012 11.9508C14.0052 12.1261 13.9601 12.3026 13.8698 12.5019C13.715 12.8426 13.5755 13.1902 13.4372 13.5385C13.1974 14.1417 13.1722 13.936 13.6089 14.3927C13.7127 14.5011 13.8305 14.5967 13.9238 14.7128C14.0568 14.8775 14.1635 14.8382 14.2878 14.7052C14.4526 14.5287 14.6197 14.354 14.7979 14.1922C14.9269 14.0749 14.9568 13.9676 14.8823 13.8011C14.6965 13.3831 14.5352 12.9545 14.3558 12.5336C14.2726 12.3384 14.1794 12.1513 14.3934 11.9561C14.1893 11.9872 14.0029 11.9848 13.8012 11.9508Z" fill="#091316"/>
<path d="M23.349 17.1624C26.0054 17.1893 28.1588 19.3544 28.1171 21.9833C28.0749 24.6497 25.9884 26.7163 23.3789 26.7274C20.5935 26.7392 18.5661 24.5805 18.548 21.951C18.5298 19.3052 20.733 17.1354 23.349 17.1624ZM27.2606 21.9675C27.2846 19.7695 25.5317 17.9908 23.2862 18.0095C21.0232 18.0289 19.4139 19.8698 19.3981 21.8807C19.3811 24.091 21.083 25.8556 23.2763 25.8814C25.4941 25.9078 27.2366 24.1959 27.2606 21.9675Z" fill="#091316"/>
<path d="M21.7377 16.1748C21.6802 16.2926 21.5958 16.2897 21.5284 16.312C21.0013 16.4832 20.5047 16.7177 20.048 17.0325C19.9044 17.1316 19.7555 17.1773 19.5808 17.1773C16.9185 17.1744 14.2562 17.1761 11.594 17.175C11.1566 17.175 10.9444 17.0384 10.9039 16.7493C10.8664 16.4761 10.9936 16.2715 11.2592 16.2006C11.3624 16.173 11.4732 16.1636 11.5805 16.1636C14.8853 16.1619 18.1901 16.1619 21.495 16.1625C21.5694 16.1619 21.6427 16.1695 21.7377 16.1748Z" fill="#091316"/>
<path d="M28.4734 28.458C28.4804 28.5524 28.4113 28.5765 28.355 28.6087C27.7775 28.9423 27.1983 29.2724 26.6231 29.6101C26.4906 29.688 26.4056 29.6892 26.3212 29.5409C25.8633 28.7371 25.4002 27.9357 24.9335 27.1366C24.8532 26.9988 24.8707 26.9179 25.0126 26.8376C25.593 26.5093 26.1693 26.1733 26.7462 25.8386C26.8465 25.7805 26.9292 25.7664 26.9972 25.8843C27.4803 26.7221 27.9645 27.5587 28.4476 28.3965C28.4605 28.4176 28.467 28.4422 28.4734 28.458Z" fill="#091316"/>
<path d="M14.931 18.3119C16.0572 18.3119 17.184 18.3107 18.3103 18.3136C18.3953 18.3136 18.5125 18.2679 18.5571 18.3728C18.5929 18.4561 18.4996 18.5212 18.4586 18.5903C18.4117 18.6689 18.3384 18.7369 18.3097 18.8208C18.1678 19.2394 17.8758 19.3121 17.4596 19.3074C15.4657 19.2845 13.4712 19.298 11.4772 19.2986C11.1202 19.2986 10.9015 19.1203 10.891 18.8237C10.8804 18.5282 11.1149 18.3148 11.4767 18.3136C12.6281 18.3101 13.7795 18.3125 14.931 18.3119Z" fill="#091316"/>
<path d="M14.3855 20.463C15.354 20.463 16.3225 20.4625 17.2905 20.4636C17.5953 20.4642 17.6024 20.4748 17.5426 20.7779C17.5361 20.8107 17.525 20.8424 17.5185 20.8752C17.4071 21.4486 17.4071 21.4486 16.8115 21.4486C15.0919 21.4486 13.3718 21.4486 11.6523 21.4486C11.5772 21.4486 11.5022 21.4503 11.4271 21.4474C11.0947 21.4327 10.8831 21.2322 10.8919 20.9426C10.9001 20.6676 11.1152 20.4671 11.4295 20.466C12.4144 20.4613 13.3999 20.4642 14.3849 20.4642C14.3855 20.4636 14.3855 20.4636 14.3855 20.463Z" fill="#091316"/>
<path d="M22.228 27.7584C22.0973 27.8704 21.9935 27.844 21.8974 27.8446C20.8139 27.8463 19.7305 27.8469 18.6471 27.844C18.5228 27.8434 18.395 27.837 18.2759 27.8047C18.052 27.7443 17.9236 27.5901 17.9154 27.3521C17.9072 27.1199 18.0444 26.94 18.2718 26.8684C18.4348 26.8168 18.6025 26.8409 18.7684 26.8315C19.4819 26.7893 20.1643 26.8286 20.7934 27.2554C21.2032 27.5344 21.7103 27.6282 22.228 27.7584Z" fill="#091316"/>
<path d="M27.7811 30.6663C27.2892 30.6728 26.9832 30.5086 26.7352 30.2231C26.6384 30.1117 26.642 30.0285 26.7838 29.9476C27.3719 29.6146 27.9581 29.2774 28.5391 28.9327C28.7138 28.8289 28.7566 28.9345 28.8047 29.0605C29.0955 29.8297 28.5081 30.6652 27.7811 30.6663Z" fill="#091316"/>
<path d="M17.0582 23.5995C16.9474 23.5942 16.7803 23.6206 16.6197 23.5584C16.4057 23.4764 16.2667 23.2671 16.2908 23.056C16.3172 22.8233 16.4966 22.6468 16.734 22.621C16.7668 22.6175 16.8003 22.6157 16.8337 22.6181C17.0301 22.6315 17.3015 22.5272 17.407 22.6697C17.5694 22.8889 17.5483 23.2049 17.607 23.4793C17.6287 23.5813 17.5425 23.5989 17.4622 23.6001C17.3449 23.6007 17.2288 23.5995 17.0582 23.5995Z" fill="#091316"/>
</svg>
