<svg width="35" height="35" viewBox="0 0 35 35" fill="none" xmlns="http://www.w3.org/2000/svg">
<rect width="35" height="35" rx="3" fill="#F4F4F4"/>
<path d="M23.3835 27.0391C22.3444 27.0391 21.498 26.1832 21.498 25.1324C21.498 24.0815 22.3444 23.2256 23.3835 23.2256C24.4226 23.2256 25.2689 24.0815 25.2689 25.1324C25.2689 26.1832 24.4226 27.0391 23.3835 27.0391ZM23.3835 24.4968C23.0374 24.4968 22.755 24.7824 22.755 25.1324C22.755 25.4824 23.0374 25.768 23.3835 25.768C23.7296 25.768 24.012 25.4824 24.012 25.1324C24.012 24.7824 23.7296 24.4968 23.3835 24.4968Z" fill="#091316"/>
<path d="M29.7745 12.4495L28.4606 13.558C28.2821 13.7088 28.0231 13.7088 27.8447 13.558L26.5307 12.4495C26.2642 12.2249 26.2282 11.8241 26.4503 11.5546C26.6723 11.2851 27.0695 11.2487 27.336 11.4741L28.1522 12.1631L28.9684 11.4741C29.2349 11.2487 29.6312 11.2851 29.8541 11.5546C30.0762 11.8241 30.041 12.2249 29.7745 12.4495Z" fill="#091316"/>
<path d="M24.1724 15.5759C24.5195 15.5759 24.8009 15.2913 24.8009 14.9403C24.8009 14.5893 24.5195 14.3047 24.1724 14.3047C23.8253 14.3047 23.5439 14.5893 23.5439 14.9403C23.5439 15.2913 23.8253 15.5759 24.1724 15.5759Z" fill="#091316"/>
<path d="M24.1724 18.0075C24.5195 18.0075 24.8009 17.7229 24.8009 17.3719C24.8009 17.0209 24.5195 16.7363 24.1724 16.7363C23.8253 16.7363 23.5439 17.0209 23.5439 17.3719C23.5439 17.7229 23.8253 18.0075 24.1724 18.0075Z" fill="#091316"/>
<path d="M28.7816 12.643H27.5246C27.5246 9.72265 25.1749 7.34638 22.2873 7.34638H21.2398C20.8929 7.34638 20.6113 7.06163 20.6113 6.71079C20.6113 6.35994 20.8929 6.0752 21.2398 6.0752H22.2873C25.868 6.0752 28.7816 9.0218 28.7816 12.643Z" fill="#091316"/>
<path d="M13.6729 17.2877C11.0156 17.2877 8.85449 15.1022 8.85449 12.4149C8.85449 9.72758 11.0156 7.54199 13.6729 7.54199C16.3301 7.54199 18.4912 9.72758 18.4912 12.4149C18.4912 15.1022 16.3301 17.2877 13.6729 17.2877ZM13.6729 8.81318C11.7086 8.81318 10.1115 10.4284 10.1115 12.4149C10.1115 14.4013 11.7086 16.0166 13.6729 16.0166C15.6371 16.0166 17.2343 14.4013 17.2343 12.4149C17.2343 10.4284 15.6371 8.81318 13.6729 8.81318Z" fill="#091316"/>
<path d="M19.3424 10.2008C18.4441 7.85084 16.1656 6.27118 13.6727 6.27118C11.1973 6.27118 8.99004 7.76779 8.05067 10.0839L6.88672 9.60084C8.02218 6.80593 10.6853 5 13.6735 5C16.681 5 19.4304 6.90593 20.5147 9.74237L19.3424 10.2008Z" fill="#091316"/>
<path d="M19.5388 15.8198C18.2676 15.8198 17.2344 14.7749 17.2344 13.4893V11.7944C17.2344 10.5088 18.2676 9.46387 19.5388 9.46387C20.81 9.46387 21.8432 10.5088 21.8432 11.7944V13.4893C21.8432 14.7749 20.81 15.8198 19.5388 15.8198ZM19.5388 10.7351C18.9614 10.7351 18.4913 11.2105 18.4913 11.7944V13.4893C18.4913 14.0732 18.9614 14.5486 19.5388 14.5486C20.1162 14.5486 20.5863 14.0732 20.5863 13.4893V11.7944C20.5863 11.2105 20.1162 10.7351 19.5388 10.7351Z" fill="#091316"/>
<path d="M7.80737 15.8198C6.53615 15.8198 5.50293 14.7749 5.50293 13.4893V11.7944C5.50293 10.5088 6.53615 9.46387 7.80737 9.46387C9.07858 9.46387 10.1118 10.5088 10.1118 11.7944V13.4893C10.1118 14.7749 9.07858 15.8198 7.80737 15.8198ZM7.80737 10.7351C7.23 10.7351 6.75989 11.2105 6.75989 11.7944V13.4893C6.75989 14.0732 7.23 14.5486 7.80737 14.5486C8.38473 14.5486 8.85484 14.0732 8.85484 13.4893V11.7944C8.85484 11.2105 8.38473 10.7351 7.80737 10.7351Z" fill="#091316"/>
<path d="M26.5136 30.0005H18.2025C17.5078 30.0005 16.8576 29.6886 16.4176 29.1445C15.9777 28.6005 15.8059 27.8937 15.9442 27.2055L16.9397 22.2598C17.1576 21.1793 18.1078 20.3945 19.198 20.3945H27.5091C28.2038 20.3945 28.854 20.7064 29.294 21.2505C29.7339 21.7945 29.9057 22.5013 29.7674 23.1894L28.7719 28.1344C28.5541 29.2157 27.6038 30.0005 26.5136 30.0005ZM19.198 21.6657C18.702 21.6657 18.2704 22.0225 18.1715 22.5132L17.176 27.4589C17.1132 27.7716 17.1919 28.0928 17.3914 28.3403C17.5908 28.5877 17.8866 28.7293 18.2025 28.7293H26.5136C27.0097 28.7293 27.4412 28.3725 27.5401 27.881L28.5356 22.9361C28.5985 22.6233 28.5197 22.3022 28.3203 22.0547C28.1208 21.8072 27.825 21.6657 27.5091 21.6657H19.198Z" fill="#091316"/>
<path d="M18.2011 29.9997H13.0836C12.7366 29.9997 12.4551 29.715 12.4551 29.3641C12.4551 29.0133 12.7366 28.7285 13.0836 28.7285H18.2011V29.9997Z" fill="#091316"/>
<path d="M9.86207 29.9996H8.14255C7.24256 29.9996 6.38363 29.6081 5.78699 28.9242C5.19035 28.2411 4.91215 27.3309 5.02444 26.4276L5.41493 23.2725C5.49789 22.6004 5.86576 21.9988 6.42302 21.6233L10.3674 18.964C12.3685 17.6149 14.9762 17.6149 16.9773 18.964L17.2941 19.1776C17.5832 19.3725 17.6611 19.7666 17.4684 20.0589C17.2757 20.3513 16.886 20.4301 16.5969 20.2352L16.2801 20.0216C14.7006 18.9572 12.6433 18.9564 11.0637 20.0216L7.11854 22.681C6.86547 22.8513 6.69871 23.1242 6.661 23.4293L6.27051 26.5843C6.20347 27.1267 6.37023 27.6725 6.72804 28.0835C7.0867 28.4928 7.60121 28.7284 8.14171 28.7284H9.86124C10.0498 28.7284 10.2174 28.6386 10.3221 28.4801C10.4269 28.3225 10.4461 28.1309 10.3758 27.9547L9.06181 24.6886C8.93108 24.3632 9.08527 23.9928 9.40705 23.8606C9.728 23.7284 10.095 23.8852 10.2249 24.2098L11.5389 27.4767C11.7668 28.0428 11.7014 28.6835 11.3637 29.1903C11.0269 29.697 10.4646 29.9996 9.8604 29.9996H9.86207Z" fill="#091316"/>
<path d="M13.6738 22.8867C12.7042 22.8867 11.8353 22.3816 11.3476 21.5342L10.166 19.4808L11.2529 18.8418L12.4344 20.8952C12.6942 21.346 13.1568 21.6155 13.6738 21.6155C14.1908 21.6155 14.6534 21.3469 14.9132 20.8952L16.0939 18.8418L17.1807 19.4808L16 21.5342C15.5123 22.3816 14.6425 22.8867 13.6738 22.8867Z" fill="#091316"/>
</svg>
