<svg width="35" height="35" viewBox="0 0 35 35" fill="none" xmlns="http://www.w3.org/2000/svg">
<rect width="35" height="35" rx="3" fill="#F4F4F4"/>
<path d="M17.4056 7.43091C17.6989 7.43091 17.9367 7.19313 17.9367 6.89982V4.53109C17.9367 4.23778 17.6989 4 17.4056 4C17.1123 4 16.8745 4.23778 16.8745 4.53109V6.89982C16.8746 7.19313 17.1123 7.43091 17.4056 7.43091Z" fill="#091316"/>
<path d="M30.3876 22.2451L29.4494 21.3095C29.1156 20.9762 28.6708 20.7925 28.1968 20.7925C27.8938 20.7925 27.6028 20.8679 27.345 21.0092L25.5771 19.2434L25.6632 19.1573C26.3804 18.4387 26.3801 17.2709 25.6631 16.5546C25.4069 16.2979 25.0871 16.1267 24.7386 16.0547C24.7866 15.8891 24.8119 15.7156 24.8119 15.538C24.8119 15.0447 24.6202 14.5821 24.2733 14.2366C24.0171 13.9799 23.6974 13.8088 23.3489 13.7367C23.3968 13.5711 23.4221 13.3976 23.4221 13.22C23.4221 12.7266 23.2305 12.2641 22.883 11.9181C22.6206 11.656 22.298 11.4901 21.9593 11.4195C22.1405 10.7948 21.9857 10.0919 21.4942 9.59954C21.0851 9.19216 20.5299 9.01708 19.9949 9.07383L16.4915 8.41069C15.9572 8.30934 15.29 8.24231 14.8688 8.62648C14.8422 8.65074 14.8151 8.67864 14.7884 8.7097C14.1354 8.47165 13.3737 8.6134 12.8507 9.13579C12.5038 9.48231 12.3126 9.94468 12.3126 10.4378C12.3126 10.6154 12.3378 10.7888 12.3857 10.9545C12.0376 11.0265 11.7183 11.1974 11.4629 11.4533C11.1153 11.7995 10.9236 12.2614 10.9232 12.7539C10.923 12.9319 10.9483 13.1059 10.9965 13.272C10.6482 13.3438 10.3287 13.5145 10.0725 13.7704C9.72486 14.1176 9.53343 14.5803 9.53343 15.0731C9.53343 15.4505 9.64612 15.8101 9.85495 16.1139C9.59128 16.2033 9.34976 16.352 9.14752 16.5541C8.4298 17.2709 8.42954 18.4387 9.14799 19.1585L9.23379 19.2439L7.4656 21.0089C6.80848 20.6995 5.99885 20.8154 5.45658 21.357L4.5178 22.2931C4.18389 22.6266 4.00005 23.0715 4 23.5457C4 24.02 4.18389 24.4649 4.5178 24.7985L5.6894 25.9686C5.89691 26.1759 6.2332 26.1757 6.44045 25.9682C6.64775 25.7607 6.64753 25.4244 6.44002 25.2172L5.26842 24.047C5.13543 23.9142 5.06218 23.7361 5.06218 23.5458C5.06218 23.3554 5.13543 23.1775 5.26811 23.0449L6.20694 22.1087C6.4415 21.8744 6.80052 21.8395 7.07315 22.0025C7.09235 22.0314 7.11455 22.0588 7.13997 22.0843C7.18548 22.1299 7.23742 22.1648 7.29258 22.1904L12.6764 27.5663C12.702 27.6221 12.7371 27.6745 12.7829 27.7204C12.8275 27.7651 12.8784 27.7996 12.9324 27.8251C13.0463 27.9538 13.1092 28.1182 13.1092 28.2936C13.1092 28.484 13.0359 28.6619 12.903 28.7948L11.9651 29.7316C11.6879 30.0075 11.2372 30.0074 10.9609 29.7324L9.7893 28.5607C9.58189 28.3533 9.24566 28.3533 9.03825 28.5607C8.83085 28.7681 8.83085 29.1043 9.03825 29.3117L10.2107 30.4843C10.5558 30.828 11.009 30.9997 11.4624 30.9997C11.9159 30.9997 12.3696 30.8277 12.7152 30.4837L13.6536 29.5464C13.9875 29.2128 14.1714 28.7679 14.1714 28.2936C14.1714 27.9551 14.0773 27.6318 13.9023 27.3531L15.8923 25.3655C15.8944 25.3634 15.8965 25.3612 15.8986 25.359C16.1265 25.1235 16.7611 25.1675 17.3747 25.2102C17.8107 25.2405 18.2968 25.2742 18.7718 25.2194L20.951 27.3961C20.8098 27.6535 20.7344 27.944 20.7344 28.2466C20.7344 28.7204 20.9183 29.165 21.2522 29.4986L22.1908 30.4359C22.5245 30.7693 22.9693 30.9529 23.4433 30.9529C23.9172 30.9529 24.362 30.7693 24.6958 30.4359L30.388 24.7506C30.7219 24.4171 30.9058 23.9723 30.9058 23.498C30.9057 23.0237 30.7218 22.5789 30.3876 22.2451ZM16.2938 9.45431L18.5976 9.89037L17.2186 11.2688C17.0053 11.1663 16.713 10.9751 16.3922 10.6683C15.9532 10.2483 15.6392 9.76338 15.6106 9.46095C15.6106 9.46079 15.6106 9.46063 15.6106 9.46048C15.6106 9.46042 15.6105 9.46037 15.6105 9.46032C15.6084 9.43859 15.6079 9.42124 15.6082 9.40801C15.6776 9.39113 15.8621 9.37241 16.2938 9.45431ZM13.6013 9.88731C13.8703 9.61852 14.2883 9.58751 14.5923 9.79339C14.7646 10.5157 15.3808 11.1704 15.658 11.4357C15.8635 11.6323 16.5227 12.2217 17.1881 12.3837C17.2781 12.5127 17.3271 12.6666 17.3271 12.8289C17.3271 13.038 17.2467 13.2335 17.1001 13.3799C16.954 13.5263 16.7582 13.6068 16.5487 13.6068C16.3392 13.6068 16.1434 13.5263 15.9966 13.3792L15.9966 13.3791L15.9963 13.3789L13.6012 10.9881C13.4552 10.8423 13.3748 10.6468 13.3748 10.4378C13.3748 10.2287 13.4552 10.0332 13.6013 9.88731ZM12.2135 12.2048C12.3596 12.0585 12.5552 11.9779 12.7644 11.9779C12.9738 11.9779 13.17 12.0587 13.3171 12.2056L15.2457 14.1303C15.5494 14.4345 15.5494 14.9295 15.2467 15.2326C15.0998 15.3789 14.9033 15.4595 14.6935 15.4595C14.4837 15.4595 14.2872 15.3789 14.1409 15.2332L14.1408 15.2332L12.6777 13.7704C12.6755 13.7681 12.673 13.766 12.6707 13.7637L12.2129 13.3061C12.0661 13.1594 11.9852 12.9636 11.9854 12.7546C11.9856 12.5464 12.0662 12.3515 12.2135 12.2048ZM10.8231 14.5219C10.9693 14.3759 11.1654 14.2954 11.3751 14.2954C11.5832 14.2954 11.7775 14.3747 11.9231 14.5182L13.3907 15.9851C13.537 16.1309 13.6177 16.3261 13.6177 16.535C13.6177 16.7437 13.537 16.939 13.3901 17.0854C13.2439 17.2313 13.0481 17.3117 12.8387 17.3117C12.629 17.3117 12.4326 17.2311 12.2862 17.0854L11.7541 16.554C11.754 16.5538 11.7539 16.5537 11.7538 16.5536L10.8232 15.6241C10.6764 15.4775 10.5957 15.2818 10.5957 15.073C10.5957 14.8642 10.6764 14.6684 10.8231 14.5219ZM9.89814 17.3055C10.045 17.1588 10.2413 17.078 10.4508 17.078C10.6603 17.078 10.8565 17.1588 11.0033 17.3054L11.5361 17.8375C11.6825 17.9833 11.763 18.1785 11.763 18.3874C11.763 18.5962 11.6824 18.7914 11.535 18.9383C11.3888 19.0847 11.193 19.1653 10.9836 19.1653C10.7741 19.1653 10.5783 19.0847 10.4311 18.9373L10.3644 18.8708C10.3635 18.8699 10.3628 18.869 10.3619 18.8682C10.3609 18.8672 10.3599 18.8664 10.3589 18.8654L9.89867 18.407C9.59497 18.1027 9.59471 17.6086 9.89814 17.3055ZM20.721 23.3414C20.5138 23.1338 20.1775 23.1337 19.97 23.3409L19.4975 23.8129C19.0485 24.2618 18.235 24.2053 17.4482 24.1507C16.5939 24.0913 15.7104 24.0301 15.1387 24.617L13.1826 26.5708L8.29074 21.6862L10.0219 19.9581C10.308 20.1335 10.6382 20.2275 10.9837 20.2275C11.4772 20.2275 11.94 20.0362 12.2857 19.6899C12.6337 19.3433 12.8254 18.8808 12.8254 18.3874C12.8254 18.3828 12.8251 18.3783 12.8251 18.3737C12.8297 18.3738 12.8342 18.374 12.8388 18.374C13.3317 18.374 13.7941 18.1833 14.1403 17.8376C14.4883 17.491 14.6799 17.0284 14.6799 16.5351C14.6799 16.5305 14.6796 16.5259 14.6796 16.5214C14.6843 16.5214 14.6889 16.5217 14.6936 16.5217C15.1863 16.5217 15.649 16.3311 15.9975 15.9841C16.3592 15.6218 16.5382 15.1447 16.5347 14.6687C16.5395 14.6687 16.5442 14.669 16.549 14.669C17.0425 14.669 17.5052 14.4777 17.8514 14.1309C18.1984 13.7843 18.3895 13.322 18.3895 12.8289C18.3895 12.4841 18.2957 12.1544 18.1209 11.8689L19.6383 10.3522C19.7513 10.2396 19.8907 10.1689 20.0369 10.1397C20.0527 10.1381 20.0683 10.1355 20.0838 10.1325C20.3182 10.1001 20.5644 10.1725 20.7437 10.3511C21.0474 10.6553 21.0474 11.1502 20.7448 11.4534L20.2827 11.9136C20.2812 11.9151 20.2796 11.9165 20.278 11.918L19.7458 12.4494C19.5382 12.6566 19.538 12.9929 19.7453 13.2004C19.9527 13.408 20.2889 13.4081 20.4963 13.2009L20.9603 12.7376C20.9604 12.7375 20.9605 12.7373 20.9606 12.7372L21.0308 12.6674C21.3353 12.3656 21.8287 12.3663 22.1329 12.6701C22.2793 12.8158 22.3599 13.0111 22.3599 13.2199C22.3599 13.4287 22.2793 13.624 22.1318 13.7709L21.667 14.2366C21.6669 14.2366 21.6669 14.2367 21.6668 14.2368L21.1346 14.7668C20.9268 14.9738 20.9261 15.3101 21.1331 15.5179C21.3401 15.7257 21.6763 15.7263 21.8842 15.5194L22.4188 14.9869C22.5649 14.8406 22.7607 14.76 22.9702 14.76C23.1797 14.76 23.3755 14.8406 23.5227 14.988C23.6691 15.1338 23.7497 15.3291 23.7497 15.5379C23.7497 15.7467 23.6691 15.942 23.5219 16.0886L22.5953 17.0155C22.388 17.2229 22.388 17.5592 22.5954 17.7665C22.6992 17.8702 22.835 17.922 22.9709 17.922C23.1069 17.922 23.2428 17.8701 23.3465 17.7664L23.8006 17.3121C23.8032 17.3096 23.806 17.3075 23.8085 17.3049C23.9547 17.1585 24.1505 17.0779 24.3599 17.0779C24.5695 17.0779 24.7653 17.1585 24.9119 17.3054C25.2153 17.6085 25.215 18.1026 24.9119 18.4062L24.4502 18.8674C24.4501 18.8676 24.4499 18.8677 24.4497 18.8679C24.4495 18.868 24.4494 18.8683 24.4492 18.8684L23.7164 19.6003C23.5089 19.8076 23.5087 20.1439 23.7159 20.3514C23.8197 20.4552 23.9557 20.5072 24.0917 20.5072C24.2275 20.5072 24.3634 20.4554 24.467 20.3519L24.8255 19.9939L26.5434 21.7098L21.652 26.5952L19.8994 24.8448C20.0216 24.7662 20.1385 24.6738 20.2483 24.5641L20.7205 24.0924C20.9281 23.8852 20.9283 23.5489 20.721 23.3414ZM29.6373 23.9991L23.9451 29.6844C23.8119 29.8174 23.6337 29.8907 23.4432 29.8907C23.2527 29.8907 23.0745 29.8174 22.9413 29.6844L22.0028 28.747C21.8698 28.6142 21.7965 28.4365 21.7965 28.2466C21.7965 28.0568 21.8698 27.8791 22.0028 27.7462L27.695 22.0609C27.8282 21.9279 28.0064 21.8546 28.1969 21.8546C28.3874 21.8546 28.5656 21.9279 28.6991 22.0612L29.6373 22.9968C29.7703 23.1296 29.8436 23.3076 29.8436 23.4979C29.8435 23.6883 29.7703 23.8663 29.6373 23.9991Z" fill="#091316"/>
<path d="M10.3539 6.98297C10.4575 7.08644 10.5933 7.13812 10.729 7.13812C10.8651 7.13812 11.0012 7.08612 11.1049 6.98218C11.3121 6.77456 11.3118 6.43833 11.1042 6.23114L9.16892 4.29974C8.96136 4.09254 8.62507 4.09281 8.41788 4.30047C8.21069 4.50809 8.211 4.84432 8.41862 5.05152L10.3539 6.98297Z" fill="#091316"/>
<path d="M24.0828 7.1381C24.2186 7.1381 24.3545 7.08631 24.4581 6.98279L26.3919 5.05134C26.5994 4.84409 26.5996 4.50781 26.3923 4.3003C26.1851 4.09279 25.8489 4.09257 25.6413 4.29987L23.7075 6.23133C23.5 6.43857 23.4998 6.77486 23.7071 6.98237C23.8108 7.08621 23.9468 7.1381 24.0828 7.1381Z" fill="#091316"/>
<path d="M7.26564 26.8443C7.06003 27.0535 7.06287 27.3898 7.27207 27.5954L7.2736 27.5968C7.3768 27.6983 7.5108 27.7488 7.64475 27.7488C7.78222 27.7488 7.9197 27.6956 8.02385 27.5897C8.22947 27.3805 8.22583 27.0435 8.01668 26.8379C7.80759 26.6323 7.47135 26.6352 7.26564 26.8443Z" fill="#091316"/>
<path d="M22.0197 22.5762C22.1005 22.5762 22.1825 22.5578 22.2594 22.5191C22.5213 22.387 22.6265 22.0676 22.4945 21.8057C22.3624 21.5438 22.0429 21.4386 21.7811 21.5707L21.7782 21.5722C21.5163 21.7043 21.4126 22.0229 21.5446 22.2848C21.6378 22.4698 21.8254 22.5762 22.0197 22.5762Z" fill="#091316"/>
</svg>
